<?xml version="1.0" standalone="no"?>
<!DOCTYPE svg PUBLIC "-//W3C//DTD SVG 20010904//EN"
 "http://www.w3.org/TR/2001/REC-SVG-20010904/DTD/svg10.dtd">
<svg version="1.0" xmlns="http://www.w3.org/2000/svg"
 width="2560.000000pt" height="2560.000000pt" viewBox="0 0 2560.000000 2560.000000"
 preserveAspectRatio="xMidYMid meet">
<metadata>
Created by potrace 1.11, written by Peter Selinger 2001-2013
</metadata>
<g transform="translate(0.000000,2560.000000) scale(0.100000,-0.100000)"
fill="#000000" stroke="none">
<path d="M0 12800 l0 -12800 12800 0 12800 0 0 12800 0 12800 -12800 0 -12800
0 0 -12800z m5050 8595 c773 -35 1104 -40 2610 -40 1512 0 1863 5 2660 40 184
8 370 18 413 21 l77 7 0 -246 0 -245 -117 -6 c-422 -25 -899 -98 -1115 -171
-258 -88 -437 -238 -547 -460 -106 -214 -164 -532 -191 -1045 -6 -123 -10
-1297 -10 -3187 l0 -2993 3970 0 3970 0 0 2993 c0 1890 -4 3064 -10 3187 -20
385 -65 700 -126 887 -102 312 -300 512 -612 618 -216 73 -693 146 -1114 171
l-118 6 0 245 0 245 88 -6 c143 -10 468 -25 962 -43 599 -22 3383 -26 4000 -5
447 15 1003 39 1108 48 l72 6 0 -245 0 -245 -117 -6 c-297 -18 -648 -62 -887
-112 -704 -147 -915 -487 -966 -1559 -13 -283 -13 -12672 0 -12955 25 -530 93
-877 212 -1090 38 -67 123 -174 174 -219 63 -55 178 -127 259 -160 42 -18 145
-49 228 -71 238 -60 458 -92 880 -126 l217 -18 0 -244 0 -244 -72 6 c-169 14
-451 27 -878 42 -623 21 -2939 31 -3660 15 -701 -15 -1360 -39 -1552 -57 l-68
-7 0 245 0 245 158 12 c478 36 761 78 1017 152 189 54 332 133 433 237 212
220 293 464 349 1052 15 158 17 481 20 3343 l4 3167 -3971 0 -3971 0 4 -3167
c3 -2862 5 -3185 20 -3343 56 -588 137 -832 349 -1052 101 -104 244 -183 433
-237 256 -74 539 -116 1018 -152 l157 -12 0 -245 0 -245 -67 7 c-193 18 -852
42 -1553 57 -721 16 -3037 6 -3660 -15 -427 -15 -709 -28 -877 -42 l-73 -6 0
244 0 244 218 18 c421 34 641 66 879 126 83 22 186 53 228 71 81 33 196 105
259 160 51 45 136 152 174 219 119 213 187 560 212 1090 13 283 13 12672 0
12955 -51 1072 -262 1412 -966 1559 -239 50 -590 94 -886 112 l-118 6 0 245 0
245 73 -6 c39 -4 218 -13 397 -21z"/>
</g>
</svg>
